<svg width="34" height="36" viewBox="0 0 34 36" fill="none" xmlns="http://www.w3.org/2000/svg">
<path d="M0.0202293 24.3292C1.41304 28.0977 4.06944 31.2667 7.53682 33.2962C11.0042 35.3257 15.068 36.0902 19.0358 35.4594C23.0037 34.8285 26.63 32.8414 29.297 29.8366C31.964 26.8318 33.5065 22.9952 33.6619 18.9805C33.8173 14.9658 32.5758 11.0215 30.149 7.81958C27.7222 4.61765 24.2603 2.35622 20.3531 1.42062C16.4459 0.485024 12.3351 0.93314 8.72129 2.68862C5.10744 4.4441 2.21407 7.39833 0.534197 11.0479L1.74886 11.607C3.29939 8.23845 5.96997 5.5117 9.30555 3.89139C12.6411 2.27108 16.4354 1.85747 20.0417 2.72102C23.6481 3.58458 26.8434 5.67188 29.0833 8.62726C31.3233 11.5826 32.4691 15.2233 32.3257 18.9288C32.1823 22.6343 30.7585 26.1755 28.2969 28.9489C25.8353 31.7224 22.4882 33.5565 18.8259 34.1388C15.1636 34.721 11.4127 34.0154 8.21228 32.1422C5.0119 30.269 2.56004 27.344 1.27447 23.8656L0.0202293 24.3292Z" fill="#656565"/>
</svg>
